<?xml version="1.0" encoding="utf-8"?>
<!-- Generator: Adobe Illustrator 23.0.1, SVG Export Plug-In . SVG Version: 6.00 Build 0)  -->
<svg version="1.1" id="图层_1" xmlns="http://www.w3.org/2000/svg" xmlns:xlink="http://www.w3.org/1999/xlink" x="0px" y="0px"
	 viewBox="0 0 1261 240" style="enable-background:new 0 0 1261 240;" xml:space="preserve">
<style type="text/css">
	.st0{fill:#4488CC;}
	.st1{fill:#56A7EF;}
	.st2{fill:none;stroke:#000000;stroke-width:3;stroke-miterlimit:10;}
</style>
<g>
	<path class="st0" d="M249.5,0c-1.9,0-3.7,0.1-5.6,0.1c-0.6,0-1.1,0.1-1.7,0.1c-1.3,0.1-2.7,0.2-4,0.3c-0.6,0.1-1.1,0.1-1.7,0.2
		c-1.6,0.2-3.2,0.4-4.8,0.6c-0.2,0-0.4,0.1-0.6,0.1c-1.8,0.3-3.5,0.6-5.3,0.9c-0.5,0.1-1.1,0.2-1.6,0.3c-1.2,0.3-2.5,0.5-3.7,0.9
		c-0.6,0.1-1.2,0.3-1.8,0.5c-1.3,0.4-2.7,0.7-4,1.1c-0.4,0.1-0.8,0.2-1.2,0.4c-1.6,0.5-3.2,1.1-4.8,1.6c-0.6,0.2-1.2,0.4-1.7,0.7
		c-1.1,0.4-2.1,0.8-3.2,1.3c-0.6,0.3-1.3,0.5-1.9,0.8c-1,0.5-2.1,0.9-3.1,1.4c-0.6,0.3-1.1,0.5-1.7,0.8c-1.4,0.7-2.9,1.4-4.3,2.2
		c-0.7,0.4-1.3,0.7-2,1.1c-0.8,0.5-1.7,0.9-2.5,1.4c-0.7,0.4-1.4,0.9-2.1,1.3c-0.8,0.5-1.5,1-2.3,1.4c-0.7,0.5-1.4,0.9-2.1,1.4
		c-1.2,0.8-2.5,1.7-3.7,2.6c-0.8,0.6-1.5,1.1-2.2,1.7c-0.6,0.5-1.2,0.9-1.7,1.4c-0.8,0.6-1.5,1.2-2.3,1.9c-0.5,0.4-1,0.9-1.5,1.3
		c-0.8,0.7-1.6,1.4-2.3,2.1c-0.1,0.1-0.2,0.2-0.3,0.3c-1.8,1.7-3.5,3.4-5.2,5.2c-0.3,0.3-0.7,0.7-1,1c-0.7,0.7-1.3,1.4-2,2.2
		c-0.1,0.1-0.2,0.2-0.3,0.4c-0.3,0.3-0.6,0.7-0.9,1.1c-2.6,3-5,6.1-7.2,9.3c-0.1,0.2-0.3,0.3-0.4,0.5c0,0.1-0.1,0.1-0.1,0.2
		c0,0-0.1,0.1-0.1,0.1c-3.9,5.4-3,13.9,3.7,19c9.2,7.1,19.5,0.5,19.5,0.5c3.1-2.2,6.4-4.2,9.7-6.1c0.3-0.2,0.6-0.3,0.9-0.5
		c0.7-0.4,1.5-0.8,2.2-1.2c0.4-0.2,0.9-0.4,1.3-0.7c0.6-0.3,1.3-0.6,1.9-0.9c0.5-0.2,0.9-0.4,1.4-0.6c0.7-0.3,1.3-0.6,2-0.9
		c0.4-0.2,0.9-0.4,1.3-0.6c0.8-0.3,1.6-0.6,2.5-1c0.3-0.1,0.6-0.2,0.9-0.3c1.1-0.4,2.2-0.8,3.3-1.1c0.4-0.1,0.8-0.3,1.2-0.4
		c0.8-0.2,1.5-0.5,2.3-0.7c0.5-0.1,0.9-0.3,1.4-0.4c0.7-0.2,1.5-0.4,2.2-0.6c0.5-0.1,0.9-0.2,1.4-0.3c0.8-0.2,1.7-0.4,2.5-0.6
		c0.4-0.1,0.7-0.2,1.1-0.2c1.2-0.2,2.4-0.5,3.6-0.6c0.3,0,0.6-0.1,0.9-0.1c0.9-0.1,1.9-0.3,2.8-0.4c0.4-0.1,0.9-0.1,1.3-0.1
		c0.8-0.1,1.6-0.2,2.5-0.2c0.5,0,0.9-0.1,1.4-0.1c0.9-0.1,1.7-0.1,2.6-0.2c0.4,0,0.8,0,1.2-0.1c1.3,0,2.5-0.1,3.8-0.1
		c23.4,0,45,7.8,62.3,21c2.1,1.5,4.1,3.2,6,4.9c13.3,12.3,21.6,29.9,21.6,49.4c0,37.2-30.1,67.3-67.3,67.3c-24,0-45.1-12.6-57-31.6
		c15.4-15.6,27.9-28.5,27.9-28.5c5.1-5.1,5.1-13.4,0-18.5c-5.1-5.1-13.4-5.1-18.5,0c0,0-80.3,83.3-97.1,89.6
		c-18.4,6.8-33.6,5.2-47.2-1.6c-1.2-0.5-2.4-1-3.6-1.6c-1.7-0.8-3.4-1.7-5.1-2.7C43.4,192.3,35,179.1,33.8,164
		c-1.2-15.1,4.8-28.9,14.8-38.4c2.8-2.5,5.7-4.7,8.8-6.7c11.7-7.8,25.7-12.4,40.8-12.4c0.9,0,1.8,0,2.7,0.1c0.3,0,0.6,0,0.9,0
		c0.6,0,1.2,0.1,1.9,0.1c0.3,0,0.6,0.1,1,0.1c0.6,0.1,1.2,0.1,1.8,0.2c0.3,0,0.6,0.1,0.9,0.1c0.7,0.1,1.3,0.2,2,0.3
		c0.2,0,0.4,0.1,0.6,0.1c0.9,0.1,1.7,0.3,2.6,0.5c0.3,0,0.5,0.1,0.8,0.2c0.6,0.1,1.2,0.3,1.8,0.4c0.3,0.1,0.6,0.2,1,0.2
		c0.5,0.1,1.1,0.3,1.6,0.4c0.3,0.1,0.7,0.2,1,0.3c0.5,0.2,1.1,0.3,1.6,0.5c0.3,0.1,0.6,0.2,0.9,0.3c0.8,0.3,1.6,0.5,2.4,0.8
		c0.2,0.1,0.4,0.2,0.6,0.2c0.6,0.2,1.2,0.4,1.8,0.7c0.3,0.1,0.6,0.3,1,0.4c0.5,0.2,0.9,0.4,1.4,0.6c0.3,0.1,0.7,0.3,1,0.5
		c0.5,0.2,0.9,0.4,1.4,0.7c0.3,0.2,0.6,0.3,0.9,0.5c0.5,0.3,1,0.5,1.6,0.8c0.2,0.1,0.5,0.2,0.7,0.4c2.4,1.3,4.7,2.8,6.9,4.3
		c0,0,1.4,0.9,3.5,1.5c0.7,0.1,1.5,0.3,2.3,0.3c6.3,0,11.4-5.1,11.4-11.4c0-1.8-0.5-3.6-1.2-5.1c-1.6-2.2-3.2-4.3-4.9-6.3
		c-0.2-0.3-0.4-0.5-0.7-0.8c-0.1-0.1-0.2-0.2-0.2-0.3c-0.5-0.5-0.9-1-1.4-1.5c-0.5-0.6-1.1-1.1-1.6-1.7c-0.8-1-1.8-1.8-2.8-2.6
		c-0.1-0.1-0.2-0.2-0.3-0.2c-0.5-0.5-1.1-1-1.7-1.5c-0.4-0.3-0.7-0.6-1.1-0.9c-0.5-0.5-1.1-0.9-1.6-1.3c-0.4-0.3-0.8-0.6-1.2-1
		c-0.5-0.4-1.1-0.8-1.6-1.2c-0.9-0.6-1.7-1.3-2.6-1.9c-0.5-0.3-1-0.7-1.5-1c-0.5-0.3-1.1-0.7-1.6-1c-0.5-0.3-1-0.6-1.5-0.9
		c-0.6-0.4-1.2-0.7-1.8-1c-0.5-0.3-0.9-0.5-1.4-0.8c-1-0.5-2-1.1-3.1-1.6c-0.4-0.2-0.8-0.4-1.2-0.6c-0.7-0.3-1.5-0.7-2.2-1
		c-0.5-0.2-0.9-0.4-1.4-0.6c-0.8-0.3-1.5-0.6-2.3-0.9c-0.4-0.2-0.8-0.3-1.2-0.5c-1.1-0.4-2.3-0.8-3.4-1.2c-0.3-0.1-0.6-0.2-0.8-0.2
		c-0.6-0.2-1.2-0.3-1.8-0.5c-0.5-0.1-1-0.3-1.6-0.4c-0.2-0.1-0.5-0.1-0.7-0.2c-0.6-0.2-1.3-0.3-2-0.5c-0.8-0.2-1.6-0.3-2.3-0.5
		c-0.7-0.1-1.4-0.3-2.2-0.4c-0.9-0.1-1.7-0.3-2.6-0.4c-0.7-0.1-1.3-0.2-2-0.3c-1-0.1-2-0.2-3-0.3c-0.5,0-0.9-0.1-1.4-0.1
		c-0.2,0-0.4,0-0.6,0c-1.5-0.1-3-0.1-4.5-0.1c0,0-0.1,0-0.1,0c-0.1,0-0.2,0-0.3,0v0c-47.1,0.2-85.2,38.4-85.2,85.5
		c0,1.3,0,2.6,0.1,3.9c0,0.3,0,0.6,0,1c0.1,1.3,0.2,2.6,0.3,3.8c0,0.1,0,0.1,0,0.2c0.1,1.2,0.3,2.4,0.5,3.6c0,0.3,0.1,0.6,0.1,0.9
		c0.2,1.2,0.4,2.5,0.7,3.7c0,0.2,0.1,0.3,0.1,0.5c0.2,1,0.4,2,0.7,3c0.1,0.4,0.2,0.8,0.3,1.2c0.3,1.2,0.6,2.3,1,3.5
		c0.1,0.2,0.1,0.4,0.2,0.6c0.3,1,0.6,2,1,3c0.1,0.3,0.2,0.7,0.4,1c0.4,1.1,0.8,2.2,1.3,3.3c0.1,0.2,0.2,0.4,0.2,0.6
		c0.4,0.9,0.8,1.8,1.2,2.8c0.2,0.4,0.3,0.7,0.5,1.1c0.5,1,1,2,1.5,3c0.2,0.3,0.3,0.6,0.5,0.8c0.4,0.8,0.9,1.6,1.3,2.3
		c0.2,0.4,0.4,0.7,0.6,1.1c0.6,0.9,1.2,1.9,1.8,2.8c0.2,0.3,0.5,0.7,0.7,1c0.5,0.7,0.9,1.3,1.4,2c0.3,0.4,0.5,0.7,0.8,1.1
		c0.6,0.8,1.3,1.7,2,2.5c0.3,0.4,0.6,0.7,0.9,1.1c0.5,0.6,0.9,1.1,1.4,1.7c0.3,0.4,0.6,0.7,1,1.1c0.7,0.8,1.4,1.5,2.1,2.2
		c0.4,0.4,0.7,0.7,1.1,1.1c0.5,0.5,1,0.9,1.5,1.4c0.4,0.4,0.8,0.7,1.1,1.1c0.7,0.7,1.5,1.3,2.3,2c0.4,0.3,0.8,0.7,1.3,1
		c0.5,0.4,1,0.8,1.5,1.2c0.4,0.3,0.9,0.7,1.3,1c0.8,0.6,1.6,1.2,2.4,1.7c0.5,0.3,0.9,0.6,1.4,0.9c0.5,0.3,1.1,0.7,1.6,1
		c0.5,0.3,0.9,0.6,1.4,0.9c0,0,0,0,0,0c12,7.2,26,11.6,40.9,12.1c0.2,0,0.4,0,0.6,0c0.8,0,1.5,0,2.3,0c18.4,0,35.5-5.9,49.4-15.8
		c0.9-0.5,5.8-4.2,7.4-5.6c2.2-1.7,9.1-8.3,18-17.2c21.9,23.7,53.3,38.6,88.2,38.6c22.6,0,43.7-6.2,61.7-17.1c0,0,0,0,0,0
		c0.7-0.4,1.3-0.8,1.9-1.2c0.8-0.5,1.5-0.9,2.2-1.4c0.7-0.4,1.3-0.9,2-1.3c1.2-0.8,2.3-1.6,3.4-2.4c0.6-0.5,1.2-0.9,1.8-1.4
		c0.7-0.5,1.4-1.1,2.1-1.7c0.6-0.5,1.2-1,1.8-1.4c1.1-0.9,2.2-1.8,3.2-2.8c0.5-0.5,1.1-1,1.6-1.5c0.7-0.6,1.4-1.3,2.1-2
		c0.5-0.5,1-1,1.5-1.5c1-1,2-2.1,3-3.1c0.5-0.5,0.9-1,1.4-1.5c0.7-0.8,1.4-1.5,2-2.3c0.4-0.5,0.8-1,1.3-1.5c0.9-1.2,1.9-2.3,2.8-3.5
		c0.4-0.5,0.8-1,1.1-1.5c0.7-0.9,1.3-1.8,1.9-2.7c0.3-0.5,0.7-0.9,1-1.4c0.9-1.3,1.7-2.6,2.5-3.9c0.3-0.5,0.6-1,0.9-1.5
		c0.6-1.1,1.2-2.1,1.8-3.2c0.2-0.4,0.5-0.8,0.7-1.3c0.8-1.4,1.5-2.8,2.2-4.2c0.2-0.5,0.5-1,0.7-1.4c0.6-1.2,1.1-2.4,1.7-3.7
		c0.2-0.4,0.3-0.7,0.5-1.1c0.6-1.5,1.2-3,1.8-4.6c0.2-0.5,0.3-0.9,0.5-1.4c0.5-1.4,1-2.8,1.4-4.1c0.1-0.3,0.2-0.5,0.3-0.8
		c0.5-1.6,1-3.3,1.4-4.9c0.1-0.4,0.2-0.9,0.3-1.3c0.4-1.5,0.7-3.1,1.1-4.6c0-0.2,0.1-0.4,0.1-0.6c0.3-1.7,0.6-3.4,0.9-5.2
		c0.1-0.4,0.1-0.9,0.2-1.3c0.2-1.7,0.5-3.4,0.6-5.1c0-0.1,0-0.2,0-0.3c0.2-1.8,0.3-3.6,0.4-5.4c0-0.4,0-0.9,0.1-1.3
		c0.1-1.8,0.1-3.7,0.1-5.5C369.6,53.7,315.8,0,249.5,0z"/>
	<path class="st1" d="M249.5,0c-1.9,0-3.7,0.1-5.6,0.1c-0.6,0-1.1,0.1-1.7,0.1c-1.3,0.1-2.7,0.2-4,0.3c-0.6,0.1-1.1,0.1-1.7,0.2
		c-1.6,0.2-3.2,0.4-4.8,0.6c-0.2,0-0.4,0.1-0.6,0.1c-1.8,0.3-3.5,0.6-5.3,0.9c-0.5,0.1-1.1,0.2-1.6,0.3c-1.2,0.3-2.5,0.5-3.7,0.9
		c-0.6,0.1-1.2,0.3-1.8,0.5c-1.3,0.4-2.7,0.7-4,1.1c-0.4,0.1-0.8,0.2-1.2,0.4c-1.6,0.5-3.2,1.1-4.8,1.6c-0.6,0.2-1.2,0.4-1.7,0.7
		c-1.1,0.4-2.1,0.8-3.2,1.3c-0.6,0.3-1.3,0.5-1.9,0.8c-1,0.5-2.1,0.9-3.1,1.4c-0.6,0.3-1.1,0.5-1.7,0.8c-1.4,0.7-2.9,1.4-4.3,2.2
		c-0.7,0.4-1.3,0.7-2,1.1c-0.8,0.5-1.7,0.9-2.5,1.4c-0.7,0.4-1.4,0.9-2.1,1.3c-0.8,0.5-1.5,1-2.3,1.4c-0.7,0.5-1.4,0.9-2.1,1.4
		c-1.2,0.8-2.5,1.7-3.7,2.6c-0.8,0.6-1.5,1.1-2.2,1.7c-0.6,0.5-1.2,0.9-1.7,1.4c-0.8,0.6-1.5,1.2-2.3,1.9c-0.5,0.4-1,0.9-1.5,1.3
		c-0.8,0.7-1.6,1.4-2.3,2.1c-0.1,0.1-0.2,0.2-0.3,0.3c-1.8,1.7-3.5,3.4-5.2,5.2c-0.3,0.3-0.7,0.7-1,1c-0.8,0.8-1.5,1.7-2.3,2.5
		c-0.3,0.3-0.6,0.7-0.9,1.1c-2.6,3-5,6.1-7.2,9.3c-0.1,0.2-0.3,0.3-0.4,0.5c0,0.1-0.1,0.1-0.1,0.2c0,0-0.1,0.1-0.1,0.1
		c-3.9,5.4-3,13.9,3.7,19c9.2,7.1,19.5,0.5,19.5,0.5c16.8-11.9,37.3-18.9,59.5-18.9c23.4,0,45,7.8,62.3,21c2.1,1.5,4.1,3.2,6,4.9
		c21.3,18.9,34.7,46.4,34.7,77.1c0,25.8-9.5,49.4-25.2,67.5c0,0,0,0,0,0c0.7-0.4,1.3-0.8,1.9-1.2c0.8-0.5,1.5-0.9,2.2-1.4
		c0.7-0.4,1.3-0.9,2-1.3c1.2-0.8,2.3-1.6,3.4-2.4c0.6-0.5,1.2-0.9,1.8-1.4c0.7-0.5,1.4-1.1,2.1-1.7c0.6-0.5,1.2-1,1.8-1.4
		c1.1-0.9,2.2-1.8,3.2-2.8c0.5-0.5,1.1-1,1.6-1.5c0.7-0.6,1.4-1.3,2.1-2c0.5-0.5,1-1,1.5-1.5c1-1,2-2.1,3-3.1c0.5-0.5,0.9-1,1.4-1.5
		c0.7-0.8,1.4-1.5,2-2.3c0.4-0.5,0.8-1,1.3-1.5c0.9-1.2,1.9-2.3,2.8-3.5c0.4-0.5,0.8-1,1.1-1.5c0.7-0.9,1.3-1.8,1.9-2.7
		c0.3-0.5,0.7-0.9,1-1.4c0.9-1.3,1.7-2.6,2.5-3.9c0.3-0.5,0.6-1,0.9-1.5c0.6-1.1,1.2-2.1,1.8-3.2c0.2-0.4,0.5-0.8,0.7-1.3
		c0.8-1.4,1.5-2.8,2.2-4.2c0.2-0.5,0.5-1,0.7-1.4c0.6-1.2,1.1-2.4,1.7-3.7c0.2-0.4,0.3-0.7,0.5-1.1c0.6-1.5,1.2-3,1.8-4.6
		c0.2-0.5,0.3-0.9,0.5-1.4c0.5-1.4,1-2.8,1.4-4.1c0.1-0.3,0.2-0.5,0.3-0.8c0.5-1.6,1-3.3,1.4-4.9c0.1-0.4,0.2-0.9,0.3-1.3
		c0.4-1.5,0.7-3.1,1.1-4.6c0-0.2,0.1-0.4,0.1-0.6c0.3-1.7,0.6-3.4,0.9-5.2c0.1-0.4,0.1-0.9,0.2-1.3c0.2-1.7,0.5-3.4,0.6-5.1
		c0-0.1,0-0.2,0-0.3c0.2-1.8,0.3-3.6,0.4-5.4c0-0.4,0-0.9,0.1-1.3c0.1-1.8,0.1-3.7,0.1-5.5C369.6,53.7,315.8,0,249.5,0z"/>
	<path class="st1" d="M39.9,226c0.5,0.3,1.1,0.7,1.6,1c0.5,0.3,0.9,0.6,1.4,0.9c0,0,0,0,0,0c-11.2-12.9-18-29.7-18-48.1
		c0-19.7,7.8-37.5,20.4-50.7c1.1-1.2,2.2-2.4,3.4-3.5c1.9-1.7,3.9-3.2,5.9-4.7c1-0.7,1.9-1.4,2.9-2.1c0,0,0,0,0,0c0,0,0,0,0,0
		c5.7-3.8,11.9-6.9,18.6-9c0.2-0.1,0.4-0.1,0.6-0.2c0.6-0.2,1.2-0.4,1.8-0.5c0.3-0.1,0.6-0.2,1-0.3c0.5-0.1,1.1-0.3,1.6-0.4
		c0.4-0.1,0.8-0.2,1.2-0.3c0.5-0.1,1-0.2,1.5-0.3c0.4-0.1,0.9-0.2,1.3-0.3c0.5-0.1,1-0.2,1.5-0.2c0.5-0.1,1-0.1,1.5-0.2
		c0.5-0.1,0.9-0.1,1.4-0.2c0.5-0.1,1.1-0.1,1.6-0.2c0.4,0,0.8-0.1,1.2-0.1c0.6-0.1,1.3-0.1,1.9-0.1c0.3,0,0.7,0,1-0.1
		c1,0,2-0.1,3-0.1c0.7,0,1.5,0,2.2,0c0.4,0,0.9,0,1.3,0.1c0,0,0,0,0,0c0.4,0,0.7,0,1.1,0.1c0.6,0,1.2,0.1,1.7,0.1h0
		c0.6,0.1,1.2,0.1,1.8,0.2c0,0,0,0,0,0c0.3,0,0.6,0.1,0.9,0.1c0,0,0,0,0,0c0.7,0.1,1.3,0.2,2,0.3c0,0,0,0,0,0c0.2,0,0.4,0.1,0.6,0.1
		c0,0,0,0,0,0c0.9,0.1,1.7,0.3,2.6,0.5c0,0,0,0,0,0c0.3,0,0.5,0.1,0.7,0.2c0,0,0,0,0,0c0.5,0.1,1,0.2,1.6,0.3
		c4.1,1,8.1,2.3,11.9,3.9c0,0,0,0,0,0c0.1,0,0.2,0.1,0.3,0.1c3.4,1.5,6.7,3.2,9.8,5.1c0.2,0.2,0.5,0.3,0.7,0.5c1,0.7,2,1.3,3,2
		c0,0,0,0,0.1,0c0,0,0,0,0.1,0c0,0,0.1,0.1,0.2,0.1c0,0,0.1,0,0.1,0.1c0.1,0,0.1,0.1,0.2,0.1c0.1,0,0.1,0.1,0.2,0.1
		c0.1,0,0.2,0.1,0.3,0.1c0.1,0,0.2,0.1,0.2,0.1c0.1,0,0.2,0.1,0.4,0.2c0.1,0,0.2,0.1,0.3,0.1c0.1,0.1,0.3,0.1,0.4,0.2
		c0.1,0,0.2,0.1,0.3,0.1c0.3,0.1,0.5,0.2,0.8,0.3c0.7,0.1,1.5,0.3,2.3,0.3c6.3,0,11.4-5.1,11.4-11.4c0-1.8-0.5-3.6-1.2-5.1
		c-0.8-1.1-1.6-2.2-2.4-3.2c-0.8-1.1-1.7-2.1-2.5-3.1c-0.2-0.3-0.4-0.5-0.7-0.8c-0.1-0.1-0.2-0.2-0.2-0.3c-0.5-0.5-0.9-1-1.4-1.5
		c-0.2-0.2-0.5-0.5-0.7-0.7c-1.2-1.3-2.4-2.5-3.7-3.7c-0.1-0.1-0.1-0.1-0.2-0.2c0,0,0,0,0,0c-0.5-0.5-1.1-1-1.7-1.5
		c-0.4-0.3-0.7-0.6-1.1-0.9c-0.5-0.5-1.1-0.9-1.6-1.3c-0.4-0.3-0.8-0.6-1.2-1c-0.5-0.4-1.1-0.8-1.6-1.2c-0.9-0.6-1.7-1.3-2.6-1.9
		c-0.5-0.3-1-0.7-1.5-1c-0.5-0.3-1.1-0.7-1.6-1c-0.5-0.3-1-0.6-1.5-0.9c-0.6-0.4-1.2-0.7-1.8-1c-0.5-0.3-0.9-0.5-1.4-0.8
		c-1-0.5-2-1.1-3.1-1.6c-0.4-0.2-0.8-0.4-1.2-0.6c-0.2-0.1-0.5-0.2-0.7-0.3c-0.5-0.2-1-0.5-1.5-0.7c-0.5-0.2-0.9-0.4-1.4-0.6
		c-0.8-0.3-1.5-0.6-2.3-0.9c-0.4-0.2-0.8-0.3-1.2-0.5c-1.1-0.4-2.3-0.8-3.4-1.2c-0.3-0.1-0.6-0.2-0.8-0.2c-0.6-0.2-1.2-0.3-1.8-0.5
		c-0.5-0.1-1-0.3-1.6-0.4c-0.1,0-0.2,0-0.3-0.1c-0.1,0-0.3-0.1-0.4-0.1c-0.6-0.2-1.3-0.3-2-0.5c-0.8-0.2-1.6-0.3-2.3-0.5
		c-0.7-0.1-1.4-0.3-2.2-0.4c-0.9-0.1-1.7-0.3-2.6-0.4c-0.7-0.1-1.3-0.2-2-0.3c-1-0.1-2-0.2-3-0.3c-0.5,0-0.9-0.1-1.4-0.1
		c-0.2,0-0.4,0-0.6,0c-1.5-0.1-3-0.1-4.5-0.1c0,0-0.1,0-0.1,0c-0.1,0-0.2,0-0.3,0v0c-23.5,0.1-44.8,9.7-60.2,25.1
		c0,0-0.1,0.1-0.1,0.1c-0.9,0.9-1.8,1.9-2.7,2.9c-0.1,0.1-0.1,0.2-0.2,0.2c-0.8,0.9-1.7,1.9-2.5,2.9c-0.1,0.1-0.2,0.2-0.3,0.4
		c-0.8,0.9-1.5,1.9-2.2,2.9c-0.1,0.2-0.2,0.4-0.4,0.5c-0.7,0.9-1.4,1.9-2,2.8c-0.1,0.2-0.3,0.4-0.4,0.6c-0.6,0.9-1.2,1.9-1.8,2.8
		c-0.2,0.3-0.3,0.5-0.5,0.8c-0.5,0.9-1.1,1.8-1.6,2.8c-0.2,0.3-0.3,0.7-0.5,1c-0.5,0.9-0.9,1.8-1.4,2.7c-0.2,0.4-0.4,0.8-0.6,1.2
		c-0.4,0.8-0.8,1.7-1.2,2.6c-0.2,0.5-0.4,1-0.6,1.4c-0.3,0.8-0.7,1.6-1,2.4c-0.2,0.5-0.4,1.1-0.5,1.6c-0.3,0.8-0.5,1.6-0.8,2.4
		c-0.2,0.6-0.3,1.2-0.5,1.9c-0.2,0.7-0.4,1.5-0.6,2.2c-0.2,0.7-0.3,1.3-0.5,2c-0.2,0.7-0.3,1.4-0.5,2.1c-0.2,0.8-0.3,1.6-0.4,2.4
		c-0.1,0.6-0.2,1.2-0.3,1.9c-0.1,1-0.3,1.9-0.4,2.9c-0.1,0.5-0.1,0.9-0.2,1.4c-0.1,1.2-0.2,2.3-0.3,3.5c0,0.3,0,0.5-0.1,0.8
		c-0.1,1.5-0.1,2.9-0.1,4.4c0,1.3,0,2.6,0.1,3.9c0,0.3,0,0.6,0,1c0.1,1.3,0.2,2.6,0.3,3.8c0,0.1,0,0.1,0,0.2
		c0.1,1.2,0.3,2.4,0.5,3.6c0,0.3,0.1,0.6,0.1,0.9c0.2,1.2,0.4,2.5,0.7,3.7c0,0.1,0.1,0.3,0.1,0.4c0.2,1.1,0.5,2.2,0.8,3.3
		c0.1,0.3,0.2,0.7,0.2,1c0.3,1.2,0.6,2.3,1,3.5c0.1,0.2,0.1,0.4,0.2,0.6c0.3,1,0.6,2,1,3c0.1,0.3,0.2,0.7,0.4,1
		c0.3,0.8,0.6,1.6,0.9,2.3c0.1,0.3,0.2,0.6,0.4,0.9c0.1,0.2,0.1,0.3,0.2,0.5c0,0,0,0.1,0,0.1c0.3,0.7,0.6,1.3,0.9,2
		c0.1,0.3,0.2,0.6,0.4,0.8c0.2,0.3,0.3,0.7,0.5,1c0.5,1,1,2,1.5,3c0.2,0.3,0.3,0.6,0.5,0.8c0.4,0.7,0.8,1.4,1.2,2.1
		c0,0.1,0.1,0.1,0.1,0.2c0.2,0.4,0.4,0.7,0.6,1.1c0.6,0.9,1.2,1.9,1.8,2.8c0.2,0.3,0.5,0.7,0.7,1c0.5,0.7,0.9,1.3,1.4,2
		c0.3,0.4,0.5,0.7,0.8,1.1c0.6,0.8,1.3,1.7,2,2.5c0.3,0.4,0.6,0.7,0.9,1.1c0.5,0.6,0.9,1.1,1.4,1.7c0.3,0.4,0.6,0.7,1,1.1
		c0.7,0.8,1.4,1.5,2.1,2.2c0.4,0.4,0.7,0.7,1.1,1.1c0.5,0.5,1,0.9,1.5,1.4c0.4,0.4,0.8,0.7,1.1,1.1c0.7,0.7,1.5,1.3,2.3,2
		c0.4,0.3,0.8,0.7,1.3,1c0.5,0.4,1,0.8,1.5,1.2c0.4,0.3,0.9,0.7,1.3,1c0.8,0.6,1.6,1.2,2.4,1.7C38.9,225.4,39.4,225.7,39.9,226z"/>
</g>
<g>
	<g>
		<path d="M681.9,120.6"/>
	</g>
	<g>
		<path class="st2" d="M1251,181.6"/>
	</g>
	<g>
		<rect x="1129.9" y="59.9" width="118.2" height="11"/>
		<path d="M1191.8,120.7h69.2v-11h-143.9v11h60.8c-11.3,14.4-34.2,42.6-48.7,53.5c-4.2,3.2-2,9.9,3.3,9.9h111
			c3.6,3,7.3,5.3,10.7,6.4l3.3-10.5c-8.9-2.8-24.2-22.3-31.7-33.9l-9.2,6c1.2,1.9,7.7,11.7,15.8,21H1147
			C1164.7,155.7,1185.8,128.6,1191.8,120.7z"/>
	</g>
	<g>
		<path d="M601.8,85.8v-11h-44c3.3-9.2,5.6-17.1,6.4-19.7h-11.4c-5.2,17.3-15.1,43.5-22.9,49.5l6.7,8.7c2-1.6,4-3.9,6-6.6
			c3.3,13.5,8.7,29.8,17.6,44.7c-7.2,10.9-16.5,20.6-28.6,26.8v12.1c14.9-6.4,26.3-16.9,35.1-29c8.8,12,20.3,22.4,35.2,28.7v-12.1
			c-12-6.2-21.3-15.8-28.6-26.6c14.3-24.6,19.6-52.5,21.4-65.7H601.8z M566.6,140.4c-8.9-17.1-13.6-35.5-15.9-48.1
			c1-2.1,1.9-4.3,2.9-6.5h29.9C581.7,97.5,577.2,119.8,566.6,140.4z"/>
		<path d="M521.5,134.8h-25.1l5.2-9.2h-12.6l-5.2,9.2h-24.9v11h18.7l-8,14.1l18.8,10.5c-9,4.8-19.9,8.4-32.8,9.2v8.9l0.1,2.1
			c18-1,32.5-6.8,43.9-14l25,14V178l-15.2-8.5c9.5-7.8,15.8-16,19.3-21.2c1.8-2.6,2-6,0.5-8.9C527.7,136.6,524.8,134.8,521.5,134.8z
			 M499,163.7l-14.4-8l5.6-9.9h26.9C513.2,150.9,507.2,157.6,499,163.7z"/>
		<path d="M456.4,118.6v11.3l0.1,0.2c17-4.7,27.8-16.2,34-25.2v14.5h11v-15.6c6,9.2,17,21.4,34.6,26.2l0.1-0.2v-11.3
			c-16.1-5.6-25-19.1-28.6-25.8h28.6v-11h-34.7V55.3h-11v26.5h-34.7v11H485C481.5,99.5,472.6,113,456.4,118.6z"/>
		<path d="M513.1,81.1c2-1,19.5-10.6,20.5-25.7h-11c-1.2,7.4-10.8,14-14.6,16l2.5,4.9L513.1,81.1z"/>
		<path d="M480.2,80.9l5.1-9.7c-3.8-2-13.3-8.5-14.6-15.9h-11C460.8,70.4,478.2,79.9,480.2,80.9z"/>
	</g>
	<g>
		<path d="M757.1,96.3c3.5,0,6.4-2.8,6.4-6.4V61.7c0-3.5-2.8-6.4-6.4-6.4h-80.3v0.1h-0.5v69.4h0c-0.5,19.5-4.4,54.6-19.3,65.3h14.9
			c12.5-18,15.3-61.6,15.3-61.6h32.6v14.9h-31.6v3v7.9v36h3.7h7.3h55.3c4.3,0,7.8-3.5,7.8-7.8v-31.2c0-4.3-3.5-7.8-7.8-7.8h-23.7
			v-14.9h32.6v-11h-32.6v-15.7h-11v15.7h-32.6V96.3H757.1z M687.3,66.3h65.2v19.1h-65.2V66.3z M751.5,154.3v25h-52.2v-25H751.5z"/>
		<path d="M672.2,92.8v-11h-19.1V55.5h-11v26.4h-19.1v11h19.1v30.3c-7.3,2.5-14.1,4.5-17.8,5.5V140c1.4-0.4,8.8-2.4,17.8-5.4v39
			c0,3.8-1.4,4.6-1.8,4.9c-1.8,1.1-5.7,1.4-11.7-0.5v11.3c2.8,0.7,5.4,1,7.8,1c3.9,0,7.2-0.9,9.9-2.6c3.2-2,6.9-6.1,6.9-14.2v-42.8
			c5.6-2.1,11.3-4.4,16.1-6.9v-12.6c-4,2.6-9.8,5.3-16.1,7.8V92.8H672.2z"/>
	</g>
	<g>
		<g>
			<polygon points="930.1,140 910.7,140 910.7,55.3 899.8,55.3 899.8,140 852.4,140 852.4,151 899.8,151 899.8,190.3 910.7,190.3 
				910.7,151 930.1,151 			"/>
			<path d="M887.2,97.9l4.2-10.1c-13.5-5.6-26-22.2-26.1-22.4l-8.8,6.5C857,72.7,870.9,91.1,887.2,97.9z"/>
			<path d="M887.2,134.7l4.2-10.1c-13.5-5.6-26-22.2-26.1-22.4l-8.8,6.5C857,109.5,870.9,127.9,887.2,134.7z"/>
		</g>
		<g>
			<path d="M846.5,105.7v-11h-24.2V70.5c8-1.5,15.3-2.9,19.3-3.7V55.6c-12.6,2.5-43.5,8.4-52.5,9.3v11c4.2-0.3,12.9-1.7,22.3-3.4
				v22.2h-27.7v11H810c-2.9,16.3-9.8,41.1-22.2,52.3v13.4c10.8-5.7,18.3-17.7,23.6-30.4v49.4h11v-84.6H846.5z"/>
			<path d="M831.1,119.3l-8.5,6.9c3.5,4.3,15.4,18.7,21.3,21.9l5.3-9.6C846.4,137,837.6,127.3,831.1,119.3z"/>
		</g>
	</g>
	<g>
		<polygon points="956,78.1 956,78.4 956,107.1 966.9,107.1 966.9,89.1 1081.4,89.1 1081.4,107.1 1092.3,107.1 1092.3,78.4 
			1092.3,78.1 		"/>
		<g>
			<path d="M989.7,77.8c-10-6.8-20.9-23.2-21.3-23.9l9.2-6c2.8,4.2,11.5,16.3,18.3,20.9L989.7,77.8z"/>
		</g>
		<g>
			<path d="M1030,77.8c-10-6.8-20.9-23.2-21.3-23.9l9.2-6c2.8,4.2,11.5,16.3,18.3,20.9L1030,77.8z"/>
		</g>
		<g>
			<path d="M1056.1,80.1l-6.2-9.1c6.8-4.7,15.5-16.7,18.3-20.9l9.2,6C1077,56.8,1066.1,73.3,1056.1,80.1z"/>
		</g>
		<path d="M1096.9,140h-60.4l28-16.5c8.3-4.9,4.8-17.6-4.8-17.6h-82v11h76.5l-32.2,19v4.2h-71.5v11h71.5l0,22.8
			c0,0.1-0.2,1.7-2.3,3.4c-2.7,2.2-9.9,5.5-27.8,3.4v11c3.7,0.4,7.3,0.6,10.5,0.6c11.3,0,19.6-2.4,24.9-7.1
			c5.5-4.9,5.6-10.5,5.6-11.1v-23h63.9V140z"/>
	</g>
</g>
</svg>
