<?xml version="1.0" encoding="utf-8"?>
<!-- Generator: Adobe Illustrator 23.0.1, SVG Export Plug-In . SVG Version: 6.00 Build 0)  -->
<svg version="1.1" id="图层_1" xmlns="http://www.w3.org/2000/svg" xmlns:xlink="http://www.w3.org/1999/xlink" x="0px" y="0px"
	 viewBox="0 0 1024 1024" style="enable-background:new 0 0 1024 1024;" xml:space="preserve">
<style type="text/css">
	.st0{fill:#67C23A;}
</style>
<g>
	<defs>
		<rect id="SVGID_1_" x="-35059.6" y="-3242.4" width="76752.6" height="8166.6"/>
	</defs>
	<clipPath id="SVGID_2_">
		<use xlink:href="#SVGID_1_"  style="overflow:visible;"/>
	</clipPath>
</g>
<path class="st0" d="M504.8,1014.3c-277,0-502.4-225.4-502.4-502.3S227.8,9.7,504.8,9.7c165.5,0,320.3,81.5,414.1,218
	c9.3,13.4,5.8,31.8-7.6,41.1c-13.4,9.3-31.8,5.8-41.1-7.6C787.3,140.7,650.7,68.8,504.8,68.8C260.4,68.8,61.6,267.6,61.6,512
	s198.8,443.2,443.2,443.2S948,756.4,948,512c0-41.1-5.6-81.8-16.7-120.9c-4.5-15.7,4.7-32.1,20.4-36.4c15.7-4.5,32.1,4.7,36.4,20.4
	c12.6,44.3,18.9,90.5,18.9,137C1007.1,788.9,781.7,1014.3,504.8,1014.3z"/>
<path class="st0" d="M454.9,774.4c-7.9,0-15.7-3.1-21.5-9.3L230.1,549.8c-11.2-11.9-10.7-30.6,1.1-41.8
	c11.8-11.2,30.6-10.7,41.8,1.1l183.3,194.2l514.3-469.9c12-11,30.7-10.2,41.8,1.8c11,12,10.2,30.7-1.8,41.8L474.8,766.6
	C469.1,771.8,462,774.4,454.9,774.4z"/>
</svg>
